<?xml version="1.0" encoding="utf-8"?>
<!-- Generator: Adobe Illustrator 24.1.3, SVG Export Plug-In . SVG Version: 6.00 Build 0)  -->
<svg version="1.1" xmlns="http://www.w3.org/2000/svg" xmlns:xlink="http://www.w3.org/1999/xlink" x="0px" y="0px"
	 viewBox="0 0 446.61 446.61" style="enable-background:new 0 0 446.61 446.61;" xml:space="preserve">
<style type="text/css">
	.st0{fill:#121214;}
	.st1{fill:#FFFFFF;}
</style>
<g id="background">
</g>
<g id="objects">
	<g>
		<path class="st0" d="M2269,238c0,109.73-88.95,198.68-198.68,198.68h0c-109.73,0-198.68-88.95-198.68-198.68v0
			c0-109.73,88.95-198.68,198.68-198.68h0C2180.05,39.32,2269,128.27,2269,238L2269,238z"/>
		<path class="st1" d="M2070.32,105.5c-73.19,0-132.5,59.3-132.5,132.5c0,73.19,59.3,132.5,132.5,132.5
			c73.19,0,132.5-59.3,132.5-132.5C2202.82,164.81,2143.52,105.5,2070.32,105.5z M2184.5,235.44c-22.98-6.58-51.58-10.46-81.33-3.88
			c-3.15-7.08-6.4-13.89-9.69-20.42c30.02-12.98,51.81-30.15,66.16-44.23C2174.77,185.82,2183.95,209.54,2184.5,235.44z
			 M2070.32,123.78c29.56,0,56.52,11.24,76.8,29.74c-13.25,13.02-33.76,29.33-62.18,41.39c-17.22-31.11-34.68-54.46-44.87-67.02
			C2049.72,125.2,2059.86,123.78,2070.32,123.78z M2021.85,134.61c8.04,9.59,26.77,33.49,45.51,66.89
			c-41.99,13.62-86.72,14.8-109.06,14.35C1965.38,179.79,1989.45,149.82,2021.85,134.61z M1956.1,238c0-1.28,0-2.6,0.09-3.88
			c3.11,0.09,6.67,0.14,10.6,0.14c25.95,0,68.58-2.56,109.29-16.4c3.11,6.03,6.12,12.34,9.05,18.87
			c-57.57,19.51-88.18,58.53-100.06,77.21C1967.07,293.74,1956.1,267.15,1956.1,238z M2070.32,352.22
			c-27.14,0-52.08-9.5-71.68-25.36v-0.05c8.73-14.53,37.05-54.46,93.66-73.28c10.78,27.09,19.42,57.38,22.8,89.5
			C2101.34,348.98,2086.22,352.22,2070.32,352.22z M2132.46,333.81c-3.93-30.57-12.11-59.21-22.2-85.07
			c26.64-5.12,52.59-0.78,73.1,5.57C2178.6,287.57,2159.46,316.22,2132.46,333.81z"/>
	</g>
	<g>
		<path class="st0" d="M3228.98,238c0,109.73-88.95,198.68-198.68,198.68h0c-109.73,0-198.68-88.95-198.68-198.68v0
			c0-109.73,88.95-198.68,198.68-198.68h0C3140.03,39.32,3228.98,128.27,3228.98,238L3228.98,238z"/>
		<g>
			<circle class="st1" cx="2959.94" cy="159.3" r="25.59"/>
			<path class="st1" d="M2979.36,329.89h-38.84c-1.05,0-1.91-0.85-1.91-1.91V203.85c0-1.05,0.85-1.91,1.91-1.91h38.84
				c1.05,0,1.91,0.85,1.91,1.91v124.13C2981.26,329.03,2980.41,329.89,2979.36,329.89z"/>
			<path class="st1" d="M3126.27,248.86v72.5c0,4.69-3.84,8.53-8.53,8.53h-25.59c-4.69,0-8.53-3.84-8.53-8.53v-59.71
				c0-11.77-9.55-21.32-21.32-21.32s-21.32,9.55-21.32,21.32v59.71c0,4.69-3.84,8.53-8.53,8.53h-25.59c-4.69,0-8.53-3.84-8.53-8.53
				V210.47c0-4.69,3.84-8.53,8.53-8.53h25.59c4.69,0,8.53,3.84,8.53,8.53v5.46c8.53-11.05,22.65-18.25,38.38-18.25
				C3102.9,197.68,3126.27,214.74,3126.27,248.86z"/>
		</g>
	</g>
	<g>
		<path class="st0" d="M3708.98,238c0,109.73-88.95,198.68-198.68,198.68h0c-109.73,0-198.68-88.95-198.68-198.68v0
			c0-109.73,88.95-198.68,198.68-198.68h0C3620.03,39.32,3708.98,128.27,3708.98,238L3708.98,238z"/>
		<path class="st1" d="M3630.2,308.96c-5.74,3.99-14.01,8.04-25.05,10.72c-2.02,0.44-3.66,1.93-4.23,3.93l-1.14,4.24
			c-1.39,4.86-5.81,8.35-10.92,8.6c-48.84,2.62-42.6,20.88-78.57,20.88s-29.72-18.26-78.57-20.88c-5.11-0.25-9.53-3.74-10.92-8.6
			l-1.14-4.24c-0.57-1.99-2.21-3.49-4.23-3.93c-11.04-2.68-19.31-6.73-25.05-10.72c-5.49-3.8-4.67-11.97,1.33-14.9
			c46.38-22.62,45.88-46.81,45.88-46.81l-21.77-16.33c-6.69-4.99-8.46-14.09-4.17-21.19c3.03-4.99,8.46-7.92,14.07-7.92
			c1.39,0,2.71,0.19,4.04,0.5l13.69,3.43c-1.7-5.86-2.59-12.09-2.59-18.51c0-37.89,31.05-68.56,69.42-68.56s69.42,30.66,69.42,68.56
			c0,6.42-0.88,12.65-2.59,18.51l13.69-3.43c7-1.74,14.39,1.25,18.11,7.42c1.58,2.62,2.33,5.48,2.33,8.35
			c0,4.86-2.27,9.66-6.5,12.84L3583,247.26c0,0-0.5,24.18,45.88,46.81C3634.87,296.99,3635.69,305.15,3630.2,308.96z"/>
	</g>
	<g>
		<path class="st0" d="M2748.99,238c0,109.73-88.95,198.68-198.68,198.68h0c-109.73,0-198.68-88.95-198.68-198.68v0
			c0-109.73,88.95-198.68,198.68-198.68h0C2660.04,39.32,2748.99,128.27,2748.99,238L2748.99,238z"/>
		<path class="st1" d="M2502.65,360.25c3.87-3.61,20.01-20.31,28.51-54.93l6.41-26.32c6.01,6.26,14.36,10.44,23.16,12.58
			c35.59,8.76,70.05-29.27,79.01-65.83c12.58-51.17-13.54-96.32-56.82-106.91c-49.84-12.22-108.64,12.12-123,70.61
			c-5.04,20.57-3.36,51.67,24.54,66.49c2.85,1.53,6.36-0.05,7.13-3.21l3.92-15.83c0.41-1.83-0.31-3.72-1.73-4.99
			c-9.93-9.01-12.22-23.72-8.86-37.52c9.72-39.56,50.4-55.8,85.02-47.3c30.04,7.38,48.31,38.03,39.81,72.65
			c-6.06,24.74-23.22,51.98-47.96,45.92c-14.82-3.61-16.5-18.12-12.47-34.52l9.06-37.06c2.34-9.57-3.51-19.24-13.03-21.59
			c-9.57-2.34-24.69,4.43-29.53,24.23c-2.85,11.56-0.51,20.82,3.87,26.93l-18.23,74.38c-8.4,34.26-2.04,56.41-0.15,61.7"/>
	</g>
	<g>
		<path class="st0" d="M2269,803.13c0,109.73-88.95,198.68-198.68,198.68h0c-109.73,0-198.68-88.95-198.68-198.68v0
			c0-109.73,88.95-198.68,198.68-198.68h0C2180.05,604.46,2269,693.41,2269,803.13L2269,803.13z"/>
		<g>
			<path class="st1" d="M2158.57,691.87h-142.63c-2.03,0-3.98,0.8-5.42,2.24l-33.87,33.87c-1.44,1.44-2.25,3.39-2.25,5.43v134.93
				c0,4.24,3.44,7.66,7.67,7.66h42.21v34.62c0,3.36,4.06,5.05,6.44,2.67l37.29-37.29H2094c2.03,0,3.98-0.8,5.42-2.24l64.57-64.56
				c1.44-1.44,2.25-3.39,2.25-5.42V699.53C2166.25,695.29,2162.81,691.87,2158.57,691.87z M2160.01,799.01
				c0,3.45-1.35,6.71-3.79,9.15l-23.31,23.31c-2.49,2.46-5.72,3.79-9.15,3.79h-30.48l-24.22,24.22c-2.14,2.14-4.99,3.33-8,3.33
				c-6.26,0-11.36-5.09-11.36-11.35v-16.2h-25.42c-7.15,0-12.95-5.81-12.95-12.95V711.05c0-7.14,5.81-12.95,12.95-12.95h122.78
				c7.15,0,12.95,5.81,12.95,12.95V799.01z"/>
			<path class="st1" d="M2147.06,707.21h-122.78c-2.12,0-3.84,1.71-3.84,3.84v111.27c0,2.11,1.71,3.84,3.84,3.84h34.53v25.32
				c0,1.99,2.4,2.98,3.8,1.58l26.89-26.89h34.25c1.01,0,1.99-0.41,2.71-1.12l23.31-23.31c0.72-0.72,1.12-1.7,1.12-2.71v-87.96
				C2150.9,708.93,2149.18,707.21,2147.06,707.21z M2081.84,779.2c0,0.5-0.41,0.91-0.91,0.91h-13.52c-0.51,0-0.91-0.41-0.91-0.91
				v-44.22c0-0.51,0.4-0.91,0.91-0.91h13.52c0.5,0,0.91,0.4,0.91,0.91V779.2z M2127.88,779.2c0,0.5-0.41,0.91-0.91,0.91h-13.52
				c-0.5,0-0.91-0.41-0.91-0.91v-44.22c0-0.51,0.41-0.91,0.91-0.91h13.52c0.5,0,0.91,0.4,0.91,0.91V779.2z"/>
		</g>
	</g>
	<g>
		<path class="st0" d="M3228.98,803.13c0,109.73-88.95,198.68-198.68,198.68h0c-109.73,0-198.68-88.95-198.68-198.68v0
			c0-109.73,88.95-198.68,198.68-198.68h0C3140.03,604.46,3228.98,693.41,3228.98,803.13L3228.98,803.13z"/>
		<path class="st1" d="M3029.59,675.83c-61.4,1.99-112.12,51.72-115.19,113.08c-1.11,22.12,3.77,43.03,13.26,61.18l-13.33,59.7
			c-0.56,2.7,1.83,5.09,4.53,4.53l59.7-13.33h0.04c18.03,9.42,38.72,14.3,60.68,13.28c61.26-2.84,111.15-53.17,113.52-114.45
			C3155.47,730.41,3098.9,673.58,3029.59,675.83z M3033.56,889.71c-17.36,0-33.62-4.69-47.6-12.88c-1.32-0.74-2.59-1.52-3.83-2.35
			l-38.14,10.16l10.16-38.14c-9.63-14.81-15.22-32.46-15.22-51.43c0-52.17,42.46-94.63,94.63-94.63c52.17,0,94.63,42.46,94.63,94.63
			S3085.73,889.71,3033.56,889.71z"/>
		<path class="st1" d="M3089.68,836.74c-1.65,2.48-3.38,4.79-6.15,7.55c-6.06,6.06-14.48,9.12-23.02,8.25
			c-15.3-1.57-37.04-10.02-55.73-28.67c-18.69-18.69-27.14-40.43-28.67-55.73c-0.87-8.54,2.19-16.95,8.25-23.02
			c2.76-2.76,5.07-4.5,7.55-6.19c4.58-3.09,10.81-1.03,12.54,4.17l6.27,18.81c1.73,5.16,0.95,8.42-1.28,10.6l-4.99,5.04
			c-2.48,2.48-2.89,6.31-0.99,9.28c2.76,4.33,7.96,11.26,17.53,20.83c9.57,9.57,16.5,14.77,20.83,17.53
			c2.97,1.9,6.81,1.48,9.28-0.99l5.04-4.99c2.19-2.23,5.45-3.01,10.6-1.28l18.81,6.27C3090.76,825.93,3092.82,832.16,3089.68,836.74
			z"/>
	</g>
	<g>
		<path class="st0" d="M3708.98,803.13c0,109.73-88.95,198.68-198.68,198.68h0c-109.73,0-198.68-88.95-198.68-198.68v0
			c0-109.73,88.95-198.68,198.68-198.68h0C3620.03,604.46,3708.98,693.41,3708.98,803.13L3708.98,803.13z"/>
		<path class="st1" d="M3628.16,794.08c0-14.79-12-26.79-26.79-26.79c-7.12,0-13.55,2.79-18.38,7.29
			c-16.07-12.59-37.71-20.95-61.87-22.93l13.71-41.09l34.55,17.3c-0.05,0.64-0.16,1.23-0.16,1.93c0,8.89,7.18,16.07,16.07,16.07
			c8.84,0,16.07-7.18,16.07-16.07c0-8.89-7.23-16.07-16.07-16.07c-4.34,0-8.25,1.71-11.14,4.5l-34.87-17.41
			c-2.62-1.34-5.73-1.5-8.52-0.38c-2.79,1.12-4.98,3.37-5.95,6.27l-14.84,44.52c-28.39,0.05-54,9-72.37,23.36
			c-4.82-4.5-11.25-7.29-18.38-7.29c-14.79,0-26.79,12-26.79,26.79c0,11.3,7.02,21,16.93,24.91c-0.59,3.27-0.86,6.54-0.86,9.91
			c0,42.91,45.59,77.68,101.78,77.68c56.2,0,101.78-34.77,101.78-77.68c0-3.38-0.27-6.64-0.86-9.91
			C3621.14,815.08,3628.16,805.38,3628.16,794.08z M3456.73,815.51c0-8.89,7.18-16.07,16.07-16.07c8.89,0,16.07,7.18,16.07,16.07
			c0,8.89-7.18,16.07-16.07,16.07C3463.91,831.58,3456.73,824.4,3456.73,815.51z M3552.25,861.31
			c-0.48,0.75-12.64,18.48-41.95,18.48c-29.3,0-41.46-17.73-41.95-18.48c-1.66-2.46-1.02-5.79,1.45-7.39
			c2.46-1.66,5.78-0.96,7.45,1.45c0.38,0.59,9.75,13.71,33.05,13.71c23.3,0,32.68-13.18,33.05-13.71c1.66-2.41,4.98-3.05,7.45-1.39
			C3553.21,855.58,3553.85,858.9,3552.25,861.31z M3547.8,831.58c-8.89,0-16.07-7.18-16.07-16.07c0-8.89,7.18-16.07,16.07-16.07
			c8.89,0,16.07,7.18,16.07,16.07C3563.87,824.4,3556.69,831.58,3547.8,831.58z"/>
	</g>
	<g>
		<path class="st0" d="M2748.99,803.13c0,109.73-88.95,198.68-198.68,198.68h0c-109.73,0-198.68-88.95-198.68-198.68v0
			c0-109.73,88.95-198.68,198.68-198.68h0C2660.04,604.46,2748.99,693.41,2748.99,803.13L2748.99,803.13z"/>
		<path class="st1" d="M2589.69,854.32v-98.44c0,0,11.1,18.5,51.22,19.63c2.14,0.06,3.91-1.7,3.91-3.84v-27.82
			c0-2.07-1.65-3.71-3.72-3.83c-31.12-1.76-45.9-25.63-47.35-47.52c-0.13-2.03-1.91-3.57-3.94-3.57h-31.73
			c-2.11,0-3.83,1.71-3.83,3.83v156.49c0,17-12.99,31.79-29.97,32.59c-19.41,0.92-35.19-15.74-32.79-35.43
			c1.7-13.91,12.86-25.3,26.74-27.23c2.76-0.38,5.46-0.41,8.06-0.12c2.31,0.26,4.34-1.46,4.34-3.78v-27.89
			c0-1.98-1.51-3.7-3.49-3.82c-3.98-0.26-8.06-0.17-12.2,0.3c-30.61,3.47-55.31,28.24-58.7,58.86
			c-4.47,40.39,27.03,74.58,66.52,74.58c36.97,0,66.94-29.97,66.94-66.94"/>
	</g>
	<g>
		<path class="st1" d="M279.8,110.85H171.99c-27.78,0-50.31,22.53-50.31,50.31v107.81c0,27.78,22.53,50.31,50.31,50.31H279.8
			c27.78,0,50.31-22.53,50.31-50.31V161.16C330.11,133.38,307.58,110.85,279.8,110.85z M312.14,265.37
			c0,19.84-16.1,35.94-35.94,35.94H175.59c-19.84,0-35.94-16.1-35.94-35.94V164.75c0-19.84,16.1-35.94,35.94-35.94h100.62
			c19.84,0,35.94,16.1,35.94,35.94V265.37z"/>
		<path class="st1" d="M226,161.16c-29.75,0-53.9,24.15-53.9,53.9c0,29.75,24.15,53.9,53.9,53.9s53.9-24.15,53.9-53.9
			C279.9,185.31,255.75,161.16,226,161.16z M226,251c-19.8,0-35.94-16.14-35.94-35.94s16.14-35.94,35.94-35.94
			s35.94,16.14,35.94,35.94S245.8,251,226,251z"/>
		<circle class="st1" cx="283.5" cy="157.57" r="10.78"/>
	</g>
	<g>
		<path class="st0" d="M3708.98-327.13c0,109.73-88.95,198.68-198.68,198.68h0c-109.73,0-198.68-88.95-198.68-198.68v0
			c0-109.73,88.95-198.68,198.68-198.68h0C3620.03-525.81,3708.98-436.86,3708.98-327.13L3708.98-327.13z"/>
		<path class="st1" d="M3595.92-411.32h-171.24c-16.92,0-30.64,13.72-30.64,30.63v107.1c0,16.92,13.72,30.63,30.64,30.63h171.24
			c16.91,0,30.63-13.71,30.63-30.63v-107.1C3626.55-397.6,3612.84-411.32,3595.92-411.32z M3537.81-319.74l-47.62,23.8
			c-5.5,2.75-11.96-1.24-11.96-7.38v-47.6c0-6.14,6.47-10.13,11.96-7.39l47.62,23.8C3543.89-331.48,3543.89-322.79,3537.81-319.74z"
			/>
	</g>
</g>
</svg>
